<mxfile host="app.diagrams.net" agent="Mozilla/5.0 (Macintosh; Intel Mac OS X 10_15_7) AppleWebKit/605.1.15 (KHTML, like Gecko) Version/17.8 Safari/605.1.15" version="24.8.6">
  <diagram name="페이지-1" id="pNzteclsHMgXsEx25h6c">
    <mxGraphModel dx="1315" dy="676" grid="0" gridSize="10" guides="1" tooltips="1" connect="1" arrows="1" fold="1" page="0" pageScale="1" pageWidth="827" pageHeight="1169" math="0" shadow="0">
      <root>
        <mxCell id="0" />
        <mxCell id="1" parent="0" />
        <mxCell id="xXamxvsCn5unscAFr6Uy-2" value="" style="rounded=0;whiteSpace=wrap;html=1;" vertex="1" parent="1">
          <mxGeometry x="-281" y="314" width="708" height="480" as="geometry" />
        </mxCell>
        <mxCell id="xXamxvsCn5unscAFr6Uy-6" value="" style="endArrow=none;html=1;rounded=0;fontSize=12;startSize=8;endSize=8;curved=1;exitX=0.25;exitY=0;exitDx=0;exitDy=0;entryX=0.25;entryY=1;entryDx=0;entryDy=0;" edge="1" parent="1" source="xXamxvsCn5unscAFr6Uy-2" target="xXamxvsCn5unscAFr6Uy-2">
          <mxGeometry width="50" height="50" relative="1" as="geometry">
            <mxPoint x="-104" y="563" as="sourcePoint" />
            <mxPoint x="-379" y="653.506329113924" as="targetPoint" />
          </mxGeometry>
        </mxCell>
        <mxCell id="xXamxvsCn5unscAFr6Uy-7" value="Side" style="text;strokeColor=none;fillColor=none;html=1;align=center;verticalAlign=middle;whiteSpace=wrap;rounded=0;fontSize=16;" vertex="1" parent="1">
          <mxGeometry x="-235" y="332" width="84" height="27" as="geometry" />
        </mxCell>
        <mxCell id="xXamxvsCn5unscAFr6Uy-8" value="" style="endArrow=none;html=1;rounded=0;fontSize=12;startSize=8;endSize=8;curved=1;" edge="1" parent="1" source="xXamxvsCn5unscAFr6Uy-2">
          <mxGeometry width="50" height="50" relative="1" as="geometry">
            <mxPoint x="227.99999999999977" y="388" as="sourcePoint" />
            <mxPoint x="-104" y="388" as="targetPoint" />
          </mxGeometry>
        </mxCell>
      </root>
    </mxGraphModel>
  </diagram>
</mxfile>
